<svg width="64" height="64" viewBox="0 0 64 64" xmlns="http://www.w3.org/2000/svg">
  <!-- Leaf icon for herbivore -->
  <g>
    <!-- Leaf shape -->
    <path d="M 32 8 Q 48 16 48 32 Q 48 48 32 56 Q 16 48 16 32 Q 16 16 32 8 Z" 
          fill="#4CAF50" stroke="#2E7D32" stroke-width="2"/>
    <!-- Leaf vein -->
    <path d="M 32 12 L 32 52" stroke="#2E7D32" stroke-width="2" fill="none"/>
    <path d="M 32 20 Q 38 24 40 28" stroke="#2E7D32" stroke-width="1.5" fill="none"/>
    <path d="M 32 28 Q 38 32 40 36" stroke="#2E7D32" stroke-width="1.5" fill="none"/>
    <path d="M 32 36 Q 38 40 40 44" stroke="#2E7D32" stroke-width="1.5" fill="none"/>
    <path d="M 32 20 Q 26 24 24 28" stroke="#2E7D32" stroke-width="1.5" fill="none"/>
    <path d="M 32 28 Q 26 32 24 36" stroke="#2E7D32" stroke-width="1.5" fill="none"/>
    <path d="M 32 36 Q 26 40 24 44" stroke="#2E7D32" stroke-width="1.5" fill="none"/>
  </g>
</svg>
